<svg width="418" height="418" viewBox="0 0 418 418" fill="none" xmlns="http://www.w3.org/2000/svg">
<path d="M203.881 393.446H222.391C225.238 393.446 227.559 391.126 227.559 388.278C227.559 385.431 225.238 383.11 222.391 383.11H203.881C201.034 383.11 198.713 385.431 198.713 388.278C198.713 391.126 201.034 393.446 203.881 393.446Z" stroke="white" stroke-width="0.75" stroke-miterlimit="10"/>
<path d="M150.964 349.642L200.269 65.5152C201.482 58.6071 208.232 53.0701 215.404 53.0701H335.372L332.524 44C344.706 44 350.296 54.3357 352.194 58.8708C352.51 59.5036 352.774 60.1891 352.932 60.8747V60.9274C353.301 62.3512 353.354 63.9332 353.038 65.5679L302.466 357.183C301.254 364.091 294.504 369.628 287.332 369.628H160.508C160.508 369.628 147.272 370.156 140.839 354.705L150.964 349.642Z" fill="#38A9A9"/>
<path d="M287.174 340.361L302.572 356.392L352.932 66.2535L337.534 50.2225L287.174 340.361Z" fill="#8CCECE"/>
<path d="M277.576 360.505H150.753C143.581 360.505 138.729 354.916 139.942 348.06L190.514 56.4451C191.726 49.537 198.476 44 205.648 44H332.524C339.696 44 344.548 49.5897 343.335 56.4451L292.764 348.06C291.551 354.916 284.748 360.505 277.576 360.505Z" fill="#058787"/>
<path d="M295.347 332.979H142.579L188.721 66.939H341.489L295.347 332.979Z" fill="#EEEBFF"/>
<path d="M154.708 263.054L188.721 66.939H341.489L307.476 263.054H154.708Z" fill="#CD2F59"/>
<mask id="mask0_2223_1984" style="mask-type:luminance" maskUnits="userSpaceOnUse" x="154" y="66" width="188" height="198">
<path d="M154.708 263.054L188.721 66.939H341.489L307.476 263.054H154.708Z" fill="white"/>
</mask>
<g mask="url(#mask0_2223_1984)">
<path d="M192.728 157.588C192.728 157.588 233.755 147.621 251.632 156.638C269.508 165.656 309.744 269.119 309.744 269.119L307.476 284.359H199.689C199.689 284.359 158.663 217.387 157.344 190.862C156.026 164.337 168.26 156.797 168.26 156.797L192.728 157.588Z" fill="#FFE459"/>
<path d="M230.749 182.161L307.687 264.004C309.005 267.273 309.691 269.119 309.691 269.119L307.423 284.359H199.636C199.636 284.359 194.363 275.763 187.613 263.582L230.749 182.161Z" fill="#FFCB53"/>
<path d="M245.725 243.016L243.827 252.402L264.393 279.138L272.145 269.224L266.397 252.666L245.725 243.016Z" fill="black"/>
<path d="M249.575 244.018H236.022C236.022 244.018 212.82 240.484 209.181 241.908C205.543 243.279 197.263 262.738 197.263 262.738L224.738 277.134H267.768C267.768 277.134 266.977 260.154 261.756 252.033C256.536 243.912 249.575 244.018 249.575 244.018Z" fill="#E1A299"/>
<path d="M251.579 156.638C251.579 156.638 244.038 153.422 237.077 158.326C230.116 163.23 226.741 176.202 228.798 183.743C230.855 191.284 263.233 244.492 263.233 244.492L245.725 242.963C245.725 242.963 259.489 248.974 264.393 279.085H308.584L312.328 251.347C312.328 251.4 273.2 162.861 251.579 156.638Z" fill="#FFE459"/>
</g>
<mask id="mask1_2223_1984" style="mask-type:luminance" maskUnits="userSpaceOnUse" x="154" y="66" width="188" height="198">
<path d="M154.708 263.054L188.721 66.939H341.489L307.476 263.054H154.708Z" fill="white"/>
</mask>
<g mask="url(#mask1_2223_1984)">
<path d="M192.728 157.588C192.728 157.588 233.755 147.621 251.632 156.638C269.508 165.656 309.744 269.119 309.744 269.119L307.476 284.359H199.689C199.689 284.359 158.663 217.387 157.344 190.862C156.026 164.337 168.26 156.797 168.26 156.797L192.728 157.588Z" fill="#FFE459"/>
<path d="M230.749 182.161L307.687 264.004C309.005 267.273 309.691 269.119 309.691 269.119L307.423 284.359H199.636C199.636 284.359 194.363 275.763 187.613 263.582L230.749 182.161Z" fill="#FFCB53"/>
<path d="M245.725 243.016L243.827 252.402L264.393 279.138L272.145 269.224L266.397 252.666L245.725 243.016Z" fill="black"/>
<path d="M249.575 244.018H236.022C236.022 244.018 212.82 240.484 209.181 241.908C205.543 243.279 197.263 262.738 197.263 262.738L224.738 277.134H267.768C267.768 277.134 266.977 260.154 261.756 252.033C256.536 243.912 249.575 244.018 249.575 244.018Z" fill="#E1A299"/>
<path d="M251.579 156.638C251.579 156.638 244.038 153.422 237.077 158.326C230.116 163.23 226.741 176.202 228.798 183.743C230.855 191.284 263.233 244.492 263.233 244.492L245.725 242.963C245.725 242.963 259.489 248.974 264.393 279.085H308.584L312.328 251.347C312.328 251.4 273.2 162.861 251.579 156.638Z" fill="#FFE459"/>
</g>
<path d="M345.022 111.762L336.163 162.755L288.387 129.639L345.022 111.762Z" fill="#8CCECE"/>
<path d="M168.26 156.849C168.26 156.849 159.981 154.213 148.696 167.027C137.411 179.841 98.6522 225.35 98.6522 225.35C98.6522 225.35 88.4746 237.742 95.4354 249.607C102.396 261.472 116.529 248.078 124.386 242.857C132.296 237.584 170.844 201.093 170.844 201.093L168.26 156.849Z" fill="#FFCB53"/>
<path d="M115.685 205.364C119.271 201.145 123.12 196.663 126.917 192.233L119.693 227.828L115.685 205.364ZM154.708 216.174L157.766 186.064L164.252 207.262C161.616 209.741 158.294 212.852 154.708 216.174Z" fill="black"/>
<path d="M169.948 229.252C163.145 214.592 157.766 200.249 157.344 190.915C156.026 164.39 168.26 156.849 168.26 156.849L192.728 157.588C192.728 157.588 233.755 147.621 251.632 156.638L169.948 229.252Z" fill="#FFE459"/>
<path d="M179.44 158.484C179.44 158.484 176.223 166.869 174.957 174.41C174.957 174.41 172.69 162.123 176.065 150.838L179.44 158.484Z" fill="#FFCB53"/>
<path d="M168.893 132.381C154.477 132.381 142.79 121.214 142.79 107.438C142.79 93.6627 154.477 82.4954 168.893 82.4954C183.309 82.4954 194.996 93.6627 194.996 107.438C194.996 121.214 183.309 132.381 168.893 132.381Z" fill="#5F2814"/>
<path d="M210.763 156.111L181.813 116.772H172.795L166.204 136.442L181.971 165.498L205.332 164.548L210.763 156.111Z" fill="#E1A299"/>
<path d="M170.37 123.944L175.221 118.512L178.754 120.411C178.754 120.411 180.125 139.131 173.164 149.308L166.204 136.494L170.37 123.944Z" fill="black"/>
<path d="M177.014 108.862C177.014 108.862 182.92 150.152 152.546 145.564C152.546 145.564 142.79 144.826 142.315 129.586C141.841 114.399 142.79 106.331 142.79 106.331L177.014 108.862Z" fill="#5F2814"/>
<path d="M179.44 122.52C175.741 122.52 172.742 119.522 172.742 115.823C172.742 112.124 175.741 109.126 179.44 109.126C183.138 109.126 186.137 112.124 186.137 115.823C186.137 119.522 183.138 122.52 179.44 122.52Z" fill="#E1A299"/>
<path d="M142.79 106.331H142.843C143.37 94.7822 152.071 85.2902 163.567 83.0227C165.413 85.7121 167.575 88.5597 169.684 90.3527C169.684 90.3527 166.784 93.3584 166.678 96.8388C166.573 100.319 172.426 103.905 172.426 103.905L169.789 118.09C169.789 118.09 162.565 114.346 158.926 120.833C158.926 120.833 152.546 116.456 146.376 118.46C145.005 118.934 143.159 119.883 142.21 120.78C142.21 111.288 142.79 106.331 142.79 106.331Z" fill="#E1A299"/>
<path d="M96.7538 251.4C88.4219 241.697 86.9981 201.462 86.9981 201.462C96.3846 193.552 114.63 189.228 114.63 189.228C114.63 189.228 119.693 187.698 121.222 193.921C122.751 200.143 118.216 206.524 118.216 206.524L121.96 225.139C121.96 225.139 120.273 241.117 112.205 247.709C104.136 254.301 96.7538 251.4 96.7538 251.4Z" fill="#FFCB53"/>
<path d="M93.748 152.894L94.0644 146.408C101.236 141.135 113.998 143.877 115.316 153.264C116.16 159.275 113.312 164.021 111.15 166.658L114.156 189.28C114.156 189.28 104.136 200.513 86.9981 201.356L85.838 184.323C81.1975 182.689 72.7601 178.734 71.2836 172.564C69.3852 164.548 86.9982 153.58 93.748 152.894Z" fill="#E1A299"/>
<path d="M172.795 83.9719C172.795 83.9719 169.051 73.1089 166.204 73.0561C163.356 73.0034 164.305 77.8021 164.305 77.8021C164.305 77.8021 162.512 72.5815 160.456 73.0561C158.452 73.478 159.19 78.1713 163.567 83.0227L172.795 83.9719Z" fill="#5F2814"/>
<path d="M189.248 176.413L184.238 172.617L181.496 176.413C181.496 176.413 173.006 245.072 173.481 270.279L184.924 280.984L196.367 270.068L189.248 176.413Z" fill="#22B23B"/>
<path d="M189.248 158.484C189.248 158.484 183.5 161.174 178.701 159.486L176.592 167.238L181.496 176.413H189.248C189.248 176.413 195.154 171.878 199.004 166.13C199.056 166.13 190.988 158.748 189.248 158.484Z" fill="#22B23B"/>
<path d="M212.82 154.054L202.273 144.562L189.248 158.484C189.248 158.484 195.629 162.861 201.008 174.41C201.06 174.41 209.709 164.232 212.82 154.054Z" fill="#FFCB53"/>
<path d="M23.6128 224.981C23.2964 224.453 23.0327 223.926 22.7163 223.346" stroke="#058787" stroke-width="2" stroke-miterlimit="10" stroke-linecap="round"/>
<path d="M288.387 72.1597H376.188C382.674 72.1597 388 77.433 388 83.9719V117.827C388 124.313 382.727 129.639 376.188 129.639H314.279L295.453 148.465V129.639H288.439C281.953 129.639 276.627 124.366 276.627 117.827V83.9719C276.627 77.4857 281.901 72.1597 288.387 72.1597Z" fill="#38A9A9"/>
<path d="M368.014 92.6201H296.56M368.014 100.899H296.56M368.014 109.178H296.56" stroke="white" stroke-width="2" stroke-miterlimit="10" stroke-linecap="round"/>
<path d="M92.4824 168.925H102.871L98.8104 138.709H88.4219C86.9981 138.709 85.9962 139.869 86.1544 141.293L89.5293 166.289C89.6875 167.712 91.0058 168.925 92.4824 168.925Z" fill="#8E6FFB"/>
<path d="M95.0663 168.925H102.976C104.4 168.925 105.402 167.765 105.244 166.341L101.869 141.346C101.658 139.922 100.34 138.762 98.9158 138.762H91.0058L95.0663 168.925Z" fill="#FF2D55"/>
<path d="M92.4824 168.925H102.871L98.8104 138.709H88.4219C86.9981 138.709 85.9962 139.869 86.1544 141.293L89.5293 166.289C89.6875 167.712 91.0058 168.925 92.4824 168.925Z" fill="#033E3E"/>
<path d="M95.0663 168.925H102.976C104.4 168.925 105.402 167.765 105.244 166.341L101.869 141.346C101.658 139.922 100.34 138.762 98.9158 138.762H91.0058L95.0663 168.925Z" fill="#058787"/>
<path d="M84.5196 140.924H98.283C103.715 140.924 107.511 136.494 106.826 131.063L105.718 122.942C104.98 117.51 99.9705 113.081 94.5389 113.081H80.7755C75.344 113.081 71.5472 117.51 72.2327 122.942L73.3401 131.063C74.0784 136.494 79.0881 140.924 84.5196 140.924Z" fill="#033E3E"/>
<path d="M84.5197 140.924H85.4689C90.9004 140.924 94.6973 136.494 94.0117 131.063L92.9043 122.942C92.166 117.51 87.1564 113.081 81.7248 113.081H80.7756C75.3441 113.081 71.5473 117.51 72.2328 122.942L73.3402 131.063C74.0785 136.494 79.0882 140.924 84.5197 140.924Z" fill="#058787"/>
<path d="M84.0978 138.498L37.4816 160.646L28.306 92.3565L80.8811 114.505C84.3088 115.876 86.8927 119.04 87.3673 122.573L88.422 130.483C88.8966 133.963 87.2091 137.127 84.0978 138.498Z" fill="#FF2D55"/>
<path d="M16.1609 129.082C12.9827 110.154 17.1584 93.6765 25.4877 92.2779C33.817 90.8793 43.1457 105.089 46.324 124.017C49.5022 142.945 45.3265 159.422 36.9972 160.821C28.6679 162.219 19.3392 148.009 16.1609 129.082Z" fill="#033E3E"/>
<mask id="mask2_2223_1984" style="mask-type:luminance" maskUnits="userSpaceOnUse" x="15" y="92" width="33" height="69">
<path d="M16.1609 129.082C12.9827 110.154 17.1584 93.6765 25.4877 92.2779C33.817 90.8793 43.1457 105.089 46.324 124.017C49.5022 142.945 45.3265 159.422 36.9972 160.821C28.6679 162.219 19.3392 148.009 16.1609 129.082Z" fill="white"/>
</mask>
<g mask="url(#mask2_2223_1984)">
<path d="M30.1515 118.565L54.3561 116.139L57.151 136.916L32.3136 134.49L30.1515 118.565Z" fill="#058787"/>
<path d="M27.7581 127.135C27.0202 122.74 27.982 118.916 29.9063 118.593C31.8307 118.269 33.9889 121.57 34.7268 125.964C35.4647 130.359 34.5029 134.183 32.5785 134.506C30.6542 134.829 28.496 131.529 27.7581 127.135Z" fill="white"/>
</g>
<path d="M16.1609 129.082C12.9827 110.154 17.1584 93.6765 25.4877 92.2779C33.817 90.8793 43.1457 105.089 46.324 124.017C49.5022 142.945 45.3265 159.422 36.9972 160.821C28.6679 162.219 19.3392 148.009 16.1609 129.082Z" stroke="white" stroke-miterlimit="10" stroke-linecap="round"/>
<path d="M86.9981 144.879C86.9981 144.879 79.4045 138.604 72.6019 140.08C65.7993 141.557 65.272 153.158 66.3267 158.906C67.3813 164.654 68.9106 171.984 75.2913 178.628C81.6721 185.273 80.5119 175.095 80.5119 175.095C80.5119 175.095 89.0547 182.056 92.4824 178.365C95.8573 174.673 93.0624 168.503 93.0624 168.503C93.0624 168.503 96.2792 165.709 93.0624 159.486C93.0624 159.486 95.2245 158.062 94.9609 153.369C94.6972 148.676 86.9981 144.879 86.9981 144.879Z" fill="#E1A299"/>
<path d="M93.0096 168.503C93.0096 168.503 94.5389 171.878 93.9588 175.095C92.3768 176.15 90.1093 176.097 88.3163 174.831C86.0488 173.197 85.416 170.244 86.8926 168.24C87.6836 167.132 88.8964 166.552 90.2675 166.447C90.2675 166.447 91.744 167.396 93.0096 168.503ZM89.371 157.219C88.7382 157.535 88.2109 157.957 87.789 158.537C86.3125 160.593 86.998 163.547 89.2128 165.129C90.8475 166.289 92.7987 166.447 94.3279 165.709C94.5389 164.232 94.3807 162.175 93.0096 159.486L89.371 157.219Z" fill="#EDC7C2"/>
<path d="M85.3634 147.832L86.9981 147.727L94.2753 151.312C94.5917 151.998 94.8554 152.683 94.8554 153.369C95.1191 158.062 92.957 159.486 92.957 159.486C93.5371 160.593 93.9062 161.595 94.1171 162.492C86.2071 158.906 85.3634 147.832 85.3634 147.832Z" fill="#D27C85"/>
<path d="M79.8263 180.316C80.9337 178.892 80.5118 175.095 80.5118 175.095C80.5118 175.095 89.0546 182.056 92.4823 178.365M93.0096 168.503C93.0096 168.503 81.1446 158.01 74.0256 162.597C74.0256 162.597 69.7015 165.181 69.807 170.718M93.0096 159.486C93.0096 159.486 81.1974 151.312 74.2366 152.683C67.2758 154.107 66.5375 160.33 66.5375 160.33" stroke="#231F20" stroke-width="0.5" stroke-miterlimit="10"/>
<path d="M94.8553 155.637C94.8553 155.637 82.9903 142.4 72.7601 145.195C65.2719 147.252 65.9047 153.369 65.9047 153.369" stroke="#231F20" stroke-width="0.5" stroke-miterlimit="10"/>
<path d="M106.298 144.193C106.298 144.193 98.9158 143.297 96.9647 142.084C95.0135 140.871 92.746 138.235 87.9473 140.502C83.1486 142.77 84.836 154.635 92.2714 157.693C99.7068 160.752 104.295 159.908 106.931 158.484C109.568 157.008 113.312 148.57 106.298 144.193ZM243.827 249.871C243.827 249.871 235.917 240.695 227.269 245.23C218.62 249.766 217.513 271.544 222.101 274.339C226.003 276.66 235.021 278.874 237.763 257.517L243.827 249.871ZM218.251 242.857C218.251 242.857 211.712 238.006 201.957 240.643C194.31 242.699 188.457 259.785 191.041 266.904C193.625 274.076 203.064 268.908 204.382 262.158L218.251 242.857Z" fill="#E1A299"/>
<path d="M230.749 245.389C230.749 245.389 222.206 235.211 214.296 244.756C214.296 244.756 209.919 241.75 205.754 245.389C201.588 249.027 197.527 270.332 204.33 272.705C208.97 274.339 210.71 271.175 210.71 271.175C210.71 271.175 215.14 278.189 222.945 272.072C230.749 265.955 230.749 245.389 230.749 245.389Z" fill="#E1A299"/>
<path d="M157.819 133.014C157.819 133.014 159.401 128.215 157.028 124.788C154.655 121.36 151.649 126.37 149.804 126.475C147.958 126.58 146.429 124.524 145.321 126.791C144.267 129.059 146.429 136.6 150.12 137.971C153.864 139.395 156.448 136.547 157.819 133.014Z" fill="#663206"/>
<mask id="mask3_2223_1984" style="mask-type:luminance" maskUnits="userSpaceOnUse" x="145" y="123" width="14" height="16">
<path d="M157.819 133.014C157.819 133.014 159.401 128.215 157.028 124.788C154.655 121.36 151.649 126.37 149.804 126.475C147.958 126.58 146.429 124.524 145.321 126.791C144.267 129.059 146.429 136.6 150.12 137.971C153.864 139.395 156.448 136.547 157.819 133.014V133.014Z" fill="white"/>
</mask>
<g mask="url(#mask3_2223_1984)">
<path d="M153.495 128.795C153.495 128.795 149.329 133.33 150.173 139.553C151.016 145.775 161.247 137.918 161.247 137.918L163.778 129.533L159.77 125.157L154.76 125.578L153.495 128.795Z" fill="#FF0022"/>
<path d="M148.116 124.682C148.116 124.682 148.854 133.805 158.874 127.213L157.239 120.832L148.116 124.682Z" fill="white"/>
</g>
<path d="M162.249 111.604L157.713 115.085" stroke="#231F20" stroke-width="0.5" stroke-miterlimit="10"/>
<path d="M159.823 102.587C159.823 102.587 158.188 97.208 154.075 97.208M143.423 101.954C143.423 101.954 144.636 97.2607 147.061 97.2607" stroke="#5F2814" stroke-width="2" stroke-miterlimit="10" stroke-linecap="round"/>
<path d="M152.387 109.811C151.921 109.811 151.544 108.749 151.544 107.438C151.544 106.128 151.921 105.065 152.387 105.065C152.853 105.065 153.231 106.128 153.231 107.438C153.231 108.749 152.853 109.811 152.387 109.811Z" fill="#231F20"/>
<path d="M144.952 109.811C144.486 109.811 144.108 108.749 144.108 107.438C144.108 106.128 144.486 105.065 144.952 105.065C145.418 105.065 145.796 106.128 145.796 107.438C145.796 108.749 145.418 109.811 144.952 109.811Z" fill="#231F20"/>
<path d="M147.641 106.384C147.641 106.384 140.575 111.868 140.575 113.608C140.575 115.295 145.849 116.983 145.849 116.983" fill="#E1A299"/>
<path d="M147.641 106.384C147.641 106.384 140.575 111.868 140.575 113.608C140.575 115.295 145.849 116.983 145.849 116.983" stroke="black" stroke-width="0.5" stroke-miterlimit="10" stroke-linecap="round"/>
<path d="M181.602 111.604L176.592 115.823" stroke="#231F20" stroke-width="0.5" stroke-miterlimit="10"/>
<path d="M276.627 54.8631H242.192" stroke="white" stroke-width="3" stroke-miterlimit="10" stroke-linecap="round"/>
<path d="M353.196 166.816C353.143 167.449 353.09 168.029 353.038 168.662" stroke="#058787" stroke-width="2" stroke-miterlimit="10" stroke-linecap="round"/>
<path d="M352.616 172.353C348.292 204.678 331.892 234.051 310.429 255.513C287.754 278.189 259.752 292.849 231.118 303.184C205.437 312.518 178.227 318.688 151.596 313.995C124.966 309.301 98.9157 292.374 86.4707 264.794C82.0938 255.092 79.4571 243.807 81.7247 233.154C83.9922 222.555 92.1132 213.116 101.605 213.116C113.417 213.116 121.96 226.774 124.597 240.115C126.917 251.98 126.021 265.164 120.167 275.341C108.355 295.96 80.67 296.329 62.688 282.935C45.6024 270.226 35.1084 248.975 25.3 228.356" stroke="#058787" stroke-width="2" stroke-miterlimit="10" stroke-linecap="round" stroke-dasharray="6.98 6.98"/>
<path d="M24.4038 226.668C24.1401 226.088 23.8765 225.561 23.6128 224.981" stroke="#058787" stroke-width="2" stroke-miterlimit="10" stroke-linecap="round"/>
<path d="M220.275 270.131C219.961 267.382 221.747 264.921 224.265 264.633C226.782 264.346 229.077 266.341 229.391 269.09C229.705 271.839 227.919 274.3 225.402 274.588C222.884 274.876 220.589 272.88 220.275 270.131Z" fill="#EDC7C2"/>
<path d="M214.138 263.793C216.669 263.529 218.937 265.533 219.253 268.275C219.57 271.017 217.777 273.496 215.245 273.812C214.402 273.917 213.611 273.759 212.925 273.39C211.501 272.441 210.763 271.228 210.763 271.228C210.447 270.648 210.236 270.015 210.183 269.277C209.867 266.535 211.607 264.056 214.138 263.793ZM204.488 263.582C207.019 263.318 209.287 265.322 209.603 268.064C209.867 270.332 208.707 272.388 206.914 273.179C206.175 273.179 205.332 273.074 204.382 272.705C202.326 271.966 201.271 269.488 200.902 266.324C201.535 264.847 202.853 263.74 204.488 263.582ZM191.041 266.957C190.777 266.166 190.566 265.216 190.514 264.214C190.988 263.371 191.726 262.685 192.728 262.369C195.101 261.472 197.791 262.896 198.793 265.48C199.32 266.904 199.215 268.433 198.582 269.646C195.576 271.07 192.359 270.648 191.041 266.957ZM92.7987 139.764C94.5389 140.186 95.8045 141.346 96.9646 142.084C97.4392 142.348 98.1775 142.611 99.074 142.875C99.4431 143.719 99.5486 144.563 99.2322 145.406C98.4939 147.463 95.8045 148.359 93.1678 147.463C90.5312 146.566 89.0019 144.141 89.6874 142.084C90.162 140.818 91.3749 140.027 92.7987 139.764Z" fill="#EDC7C2"/>
<path d="M335.583 310.62L345.391 319.848L341.331 323.592L346.235 324.119L326.829 337.039L283.482 306.928L335.583 310.62Z" fill="#FF2D55"/>
<path d="M345.391 319.848L339.591 303.817L283.483 306.928L345.391 319.848Z" fill="#07A872"/>
<path d="M353.987 343.736L346.235 324.119L283.482 306.928L353.987 343.736Z" fill="#07A872"/>
<path d="M217.091 242.172C217.091 242.172 206.439 253.351 210.763 271.175M206.439 244.756C206.439 244.756 198.687 253.615 201.113 267.8M227.269 245.23C227.269 245.23 216.775 261.05 221.152 273.337M243.827 257.623C243.827 257.623 241.559 259.785 237.552 259.257C237.552 259.257 237.552 263.582 235.442 267.748" stroke="black" stroke-width="0.5" stroke-miterlimit="10" stroke-linecap="round"/>
<path d="M263.233 244.492C263.233 244.492 260.385 239.799 256.325 232.996L278.262 245.23L263.233 244.492Z" fill="black"/>
<path d="M114.525 208.001C114.525 208.001 107.67 211.428 101.605 210.005" stroke="#231F20" stroke-width="0.5" stroke-miterlimit="10"/>
</svg>
